<?xml version="1.0" encoding="UTF-8"?>
<svg width="93.75" height="31" version="1.1" viewBox="0 0 93.75 31" xmlns="http://www.w3.org/2000/svg">
 <defs>
  <style>.cls-2{fill:#fff;stroke:#2b94e8;stroke-miterlimit:10;stroke-width:2.4px}</style>
 </defs>
 <path d="m35.99 21.408h21.361c0.45887-0.18365 0.60761-0.78837-0.02057-1.1945a9.4005 8.8707 0 0 1-3.1456-4.0314 52.227 49.284 0 0 1-0.09336-5.9606c0-3.1938-3.5586-5.2857-7.2011-5.4409v-0.014931c-0.07279 0-0.14399 0-0.2152 0.00748-0.0712 0.00746-0.14398-0.00748-0.21676-0.00748v0.014931c-3.6393 0.14931-7.2011 2.2397-7.2011 5.4409a52.237 49.293 0 0 1-0.09336 5.9606 9.4005 8.8707 0 0 1-3.1456 4.0314c-0.63609 0.40762-0.48735 1.0123-0.02848 1.1945z" stroke-width="1.5371" data-name="패스 994"/>
 <path d="m42.663 22.925a3.9937 3.7686 0 0 0 1.1377 3.1266 4.0618 3.8329 0 0 0 5.7359 0 3.9969 3.7716 0 0 0 1.1377-3.1266z" stroke-width="1.5371" data-name="패스 995"/>
</svg>
