<svg xmlns="http://www.w3.org/2000/svg" width="22" height="18" viewBox="0 0 22 18">
    <path fill="#c2c2c2" d="M417.919 372.189h-8.948a2.647 2.647 0 0 0-2.086 1.023l-3.866 4.951a2.728 2.728 0 0 0-.245 2.975l4.151 7.654a2.655 2.655 0 0 0 2.331 1.4h8.376a2.655 2.655 0 0 0 2.331-1.4l4.152-7.654a2.729 2.729 0 0 0-.246-2.975L420 373.212a2.648 2.648 0 0 0-2.081-1.023z" transform="translate(-402.445 -372.189)"/>
    <path fill="#fff" d="M2184.32 3628.454v1.573h-1.333v-1.453a5.1 5.1 0 0 1-2.289-.657l.4-1.787a4.326 4.326 0 0 0 2.236.672c.78 0 1.306-.352 1.306-.946s-.433-.949-1.442-1.331c-1.439-.552-2.422-1.315-2.422-2.8a2.681 2.681 0 0 1 2.276-2.72v-1.454h1.317v1.346a4.421 4.421 0 0 1 1.967.5l-.405 1.728a3.8 3.8 0 0 0-1.938-.536c-.875 0-1.158.443-1.158.872 0 .486.473.826 1.631 1.3 1.6.643 2.234 1.483 2.234 2.874a2.772 2.772 0 0 1-2.38 2.819z" transform="translate(-2172.893 -3615.018)"/>
</svg>
