<svg xmlns="http://www.w3.org/2000/svg" width="93.75" height="31" viewBox="0 0 93.75 31">
    <g>
        <path fill="#fff" d="M0 0h93.75v31H0z" transform="translate(0 -8) translate(0 8)"/>
        <path fill="none" stroke="#2b94e8" stroke-width="2.4px" d="M224.772 90.085l-6.681-4.694a1.44 1.44 0 0 0-1.666 0l-6.666 4.694c-.717.566-1.493.99-1.493 2.222v9.156a1.14 1.14 0 0 0 1.117 1.162h4.657a.614.614 0 0 0 .6-.626v-3.915a.632.632 0 0 1 .619-.643h4.013a.632.632 0 0 1 .619.643V102a.614.614 0 0 0 .6.626h4.657a1.14 1.14 0 0 0 1.117-1.162v-9.157a2.822 2.822 0 0 0-1.493-2.222z" transform="translate(0 -8) translate(-170.766 -70.625)"/>
    </g>
</svg>
