<svg xmlns="http://www.w3.org/2000/svg" width="51" height="44" viewBox="0 0 51 44">
    <g>
        <g>
            <g>
                <g>
                    <path fill="#a3ace9" d="M426.359 372.189H412.53a4.2 4.2 0 0 0-3.223 1.478l-5.974 7.151a3.731 3.731 0 0 0-.379 4.3l6.415 11.055a4.153 4.153 0 0 0 3.6 2.019h12.944a4.152 4.152 0 0 0 3.6-2.019l6.416-11.055a3.732 3.732 0 0 0-.379-4.3l-5.973-7.151a4.2 4.2 0 0 0-3.218-1.478z" transform="translate(-134 -702) translate(1 164.174) translate(117 2) translate(0 120) translate(-377.445 43.637)"/>
                </g>
                <path fill="#fff" d="M57.713 505.322a7.52 7.52 0 0 0-1.334-3.773 7.685 7.685 0 0 0-4.491-3.052 7.565 7.565 0 0 0-1.715-.208l-.028-.021-.028.021a7.586 7.586 0 0 0-7.54 7.033c-.013.181-.028.361-.028.545s.014.365.028.545a7.52 7.52 0 0 0 1.334 3.774 7.646 7.646 0 0 0 6.206 3.26l.028.021.028-.021a7.639 7.639 0 0 0 5.512-2.41 7.673 7.673 0 0 0 .694-.851 7.52 7.52 0 0 0 1.334-3.774c.013-.181.028-.361.028-.545s-.015-.366-.028-.544zm-1.093 0h-2.55a9.244 9.244 0 0 0-.47-2.432 11.168 11.168 0 0 0 1.837-.779 6.435 6.435 0 0 1 1.183 3.211zm-1.906-4.065a10.118 10.118 0 0 1-1.528.622 9.335 9.335 0 0 0-1.584-2.331 6.5 6.5 0 0 1 3.113 1.709zm-7.4 4.065a8.139 8.139 0 0 1 .435-2.147 11.229 11.229 0 0 0 4.8 0 8.154 8.154 0 0 1 .435 2.147zm5.666 1.091a8.157 8.157 0 0 1-.435 2.148 11.223 11.223 0 0 0-4.8 0 8.138 8.138 0 0 1-.435-2.148zm-2.833-6.762a8.263 8.263 0 0 1 1.962 2.5 10.155 10.155 0 0 1-3.925 0 8.264 8.264 0 0 1 1.961-2.5zm-1.458-.1a9.347 9.347 0 0 0-1.584 2.331 10.112 10.112 0 0 1-1.528-.622 6.5 6.5 0 0 1 3.11-1.712zm-3.835 2.563a11.18 11.18 0 0 0 1.837.779 9.243 9.243 0 0 0-.469 2.432h-2.55a6.435 6.435 0 0 1 1.179-3.213zm-1.182 4.3h2.55a9.241 9.241 0 0 0 .469 2.432 11.185 11.185 0 0 0-1.837.779 6.44 6.44 0 0 1-1.185-3.212zm1.905 4.066a10.1 10.1 0 0 1 1.528-.623 9.34 9.34 0 0 0 1.584 2.332 6.5 6.5 0 0 1-3.115-1.71zm4.57 1.607a8.272 8.272 0 0 1-1.963-2.5 10.161 10.161 0 0 1 3.925 0 8.27 8.27 0 0 1-1.964 2.498zm1.458.1a9.35 9.35 0 0 0 1.584-2.332 10.135 10.135 0 0 1 1.528.623 6.5 6.5 0 0 1-3.117 1.71zm3.836-2.564a11.174 11.174 0 0 0-1.838-.779 9.224 9.224 0 0 0 .47-2.432h2.55a6.439 6.439 0 0 1-1.184 3.212z" transform="translate(-134 -702) translate(1 164.174) translate(117 2) translate(-8.549 42.732)"/>
            </g>
        </g>
        <path fill="none" d="M0 0H51V44H0z" transform="translate(-134 -702) translate(134 702)"/>
    </g>
</svg>
