<svg xmlns="http://www.w3.org/2000/svg" width="110.761" height="39.39" viewBox="0 0 110.761 39.39">
    <defs>
        <clipPath id="vs13jt4g6a">
            <path d="M0-8.3h86.1v-8.14H0z" transform="translate(0 16.439)"/>
        </clipPath>
    </defs>
    <g>
        <g opacity="0.88">
            <path d="M268.157 284.112l-5.594 13.728-.031.084a1.806 1.806 0 0 1-1.719 1.216h-2.4a1.807 1.807 0 0 1-1.72-1.216l-5.625-13.812h-3.2l6.033 14.806a4.77 4.77 0 0 0 4.514 3.182h2.4a4.769 4.769 0 0 0 4.513-3.182l6.034-14.806z" transform="translate(-132 -110.61) translate(-41.992 -152.934) translate(-27.503 -.011)"/>
            <path d="M288.813 294.577h13.774v-2.961h-12.574l1.45-3.58c.091-.242.368-.978 1.671-.978h9.438V284.1h-9.438a4.51 4.51 0 0 0-4.434 2.863l-3.453 8.525a4.827 4.827 0 0 0 .294 4.544 4.7 4.7 0 0 0 4.07 2.065h12.966v-2.961h-12.966a1.8 1.8 0 0 1-1.578-.709 1.851 1.851 0 0 1-.07-1.748z" transform="translate(-132 -110.61) translate(-41.992 -152.934) translate(-41.251 -.006)"/>
            <path d="M339.193 301.108l-3.969-5.139a4.667 4.667 0 0 0 3.244-6.192l-1.1-2.586-.022-.056a4.8 4.8 0 0 0-4.779-2.965l-12.322-.088V302.1h2.966v-6.017h8.358l5.291 6.851zm-15.983-14.044l9.346.067c1.352 0 1.79.548 2.054 1.148l1.087 2.549a1.672 1.672 0 0 1-.191 1.581 1.559 1.559 0 0 1-1.228.713H323.21z" transform="translate(-132 -110.61) translate(-41.992 -152.934) translate(-54.44)"/>
            <path d="M234.776 302.117h3.2l-6.032-14.8a4.77 4.77 0 0 0-4.514-3.182h-2.4a4.769 4.769 0 0 0-4.513 3.182l-6.031 14.8h3.2l2.442-5.992h12.2zm-13.436-8.953l1.944-4.771.031-.084a1.805 1.805 0 0 1 1.719-1.216h2.4a1.807 1.807 0 0 1 1.72 1.216l1.977 4.854z" transform="translate(-132 -110.61) translate(-41.992 -152.934) translate(-15.077 -.019)"/>
            <path fill="#2b94e8" d="M176.935 297.957v.006l1.318 3.33a1.362 1.362 0 0 0 1.33.836h13.979a1.451 1.451 0 0 0 1.421-.756l3.481-8.728a1.159 1.159 0 0 0-.116-1.1 1.082 1.082 0 0 0-.962-.472h-19.4v-.006l1.121-2.706h19.248v-.006l-1.195-2.908a2.02 2.02 0 0 0-1.87-1.251h-17.63a2.019 2.019 0 0 0-1.867 1.247l-1.643 3.97a2.033 2.033 0 0 0-.01 1.528l1.709 4.3h17.066v.006l-1.068 2.715z" transform="translate(-132 -110.61) translate(-41.992 -152.934) translate(0 -.04)"/>
        </g>
        <g>
            <g clip-path="url(#vs13jt4g6a)" transform="translate(-132 -110.61) translate(144.921 127.049) translate(0 -16.439)">
                <g>
                    <path d="M-4.678-.429a.9.9 0 0 0-.589-.261.947.947 0 0 0-.627.164.8.8 0 0 0-.324.593 3.136 3.136 0 0 1-.278.968 3.058 3.058 0 0 1-.522.77 2.892 2.892 0 0 1-.7.551 2.98 2.98 0 0 1-.8.311.746.746 0 0 0-.482.296.749.749 0 0 0-.126.53.67.67 0 0 0 .261.484.829.829 0 0 0 .539.164A2.97 2.97 0 0 0-7.493 4a4 4 0 0 0 .824-.37 4.616 4.616 0 0 0 .762-.564 4.662 4.662 0 0 0 .648-.724 2.012 2.012 0 0 1 .715.109 1.829 1.829 0 0 1 .6.35 1.93 1.93 0 0 1 .442.572 2.351 2.351 0 0 1 .236.77h1.709a3.865 3.865 0 0 0-.341-1.4 3.153 3.153 0 0 0-.7-.976 2.847 2.847 0 0 0-.943-.581A3.312 3.312 0 0 0-4.593.977 3.164 3.164 0 0 0-4.476.2a.819.819 0 0 0-.2-.631m-3.865 5.936a.792.792 0 0 0-.333.063.668.668 0 0 0-.227.164.61.61 0 0 0-.126.231.92.92 0 0 0-.038.257.816.816 0 0 0 .042.261.66.66 0 0 0 .13.227.623.623 0 0 0 .223.16.819.819 0 0 0 .328.059h6.432a.819.819 0 0 0 .328-.059.623.623 0 0 0 .223-.16.668.668 0 0 0 .13-.227.816.816 0 0 0 .042-.261.9.9 0 0 0-.038-.257.6.6 0 0 0-.126-.231.658.658 0 0 0-.227-.164.793.793 0 0 0-.333-.063zM4.607 6.776V.859a3.688 3.688 0 0 0-.051-.665.886.886 0 0 0-.19-.429.765.765 0 0 0-.4-.227A2.7 2.7 0 0 0 3.3-.53H1.332a2.712 2.712 0 0 0-.669.067.764.764 0 0 0-.4.227.891.891 0 0 0-.19.429 3.688 3.688 0 0 0-.045.666v4.528a3.688 3.688 0 0 0 .051.665.891.891 0 0 0 .19.429.764.764 0 0 0 .4.227 2.712 2.712 0 0 0 .669.067zm.917.32h1.667V3.6h.278a.681.681 0 0 0 .316-.067.577.577 0 0 0 .206-.172.7.7 0 0 0 .109-.234 1 1 0 0 0 0-.513.69.69 0 0 0-.109-.236.581.581 0 0 0-.2-.173.673.673 0 0 0-.32-.067h-.28V.009a.822.822 0 0 0-.071-.354.781.781 0 0 0-.186-.255.807.807 0 0 0-.265-.155.907.907 0 0 0-.311-.055.891.891 0 0 0-.581.21.741.741 0 0 0-.253.61zm-3.863-6.01A.455.455 0 0 1 1.7.884c.025-.051.085-.076.181-.076h.867c.1 0 .157.025.185.076a.414.414 0 0 1 .042.2v4.354H1.939a.271.271 0 0 1-.223-.072.351.351 0 0 1-.054-.214zm7.9 4.428a.8.8 0 0 0-.332.063.658.658 0 0 0-.229.164.607.607 0 0 0-.127.227.892.892 0 0 0-.038.253.816.816 0 0 0 .042.261.66.66 0 0 0 .123.227.628.628 0 0 0 .223.16.819.819 0 0 0 .328.059h6.431a.819.819 0 0 0 .328-.059.623.623 0 0 0 .223-.16.668.668 0 0 0 .13-.227.816.816 0 0 0 .042-.261.859.859 0 0 0-.038-.253.6.6 0 0 0-.126-.227.658.658 0 0 0-.227-.164.8.8 0 0 0-.333-.063zm.993-6.069a1.4 1.4 0 0 0-1.035.316 1.4 1.4 0 0 0-.3 1v2.328a1.4 1.4 0 0 0 .3 1 1.4 1.4 0 0 0 1.035.316h5.236a.58.58 0 0 0 .5-.2.726.726 0 0 0 .152-.446.814.814 0 0 0-.034-.231.557.557 0 0 0-.113-.206.616.616 0 0 0-.2-.152.688.688 0 0 0-.3-.059h-4.623a.3.3 0 0 1-.19-.051.216.216 0 0 1-.063-.177v-.32H15.6a.585.585 0 0 0 .5-.2.7.7 0 0 0 .152-.433.717.717 0 0 0-.152-.43.58.58 0 0 0-.5-.2h-4.68V.968q0-.219.253-.219h4.477a.58.58 0 0 0 .5-.2A.726.726 0 0 0 16.3.1a.861.861 0 0 0-.034-.236.545.545 0 0 0-.114-.21.609.609 0 0 0-.2-.152.688.688 0 0 0-.3-.059zM21.3 4.074a2.11 2.11 0 0 0 .707-.332 1.672 1.672 0 0 0 .484-.56 1.67 1.67 0 0 0 .181-.8v-.614a1.046 1.046 0 0 0-.185-.589h.034a.549.549 0 0 0 .463-.185.657.657 0 0 0 .143-.412.717.717 0 0 0-.147-.429.54.54 0 0 0-.467-.2H21.3v-.02a.727.727 0 0 0-.236-.577.9.9 0 0 0-.614-.206.894.894 0 0 0-.61.2.729.729 0 0 0-.232.581v.019h-1.222a.552.552 0 0 0-.467.2.691.691 0 0 0-.156.429.616.616 0 0 0 .16.412.589.589 0 0 0 .471.185h.006a1.24 1.24 0 0 0-.13.278 1 1 0 0 0-.047.311v.614a1.67 1.67 0 0 0 .181.8 1.672 1.672 0 0 0 .484.56 2.11 2.11 0 0 0 .707.332 3.357 3.357 0 0 0 1.7 0M24.884 7.1a.669.669 0 0 0 .543-.2.719.719 0 0 0 0-.909.666.666 0 0 0-.547-.2h-4.406a.333.333 0 0 1-.185-.034c-.028-.022-.042-.081-.042-.177v-.336A.772.772 0 0 0 20 4.613a.907.907 0 0 0-.6-.2.956.956 0 0 0-.61.2.754.754 0 0 0-.257.631v.623a2.559 2.559 0 0 0 .055.572.806.806 0 0 0 .189.379.8.8 0 0 0 .366.21 2.131 2.131 0 0 0 .585.067zm-1.229-1.957h1.65V2.761h.261a.681.681 0 0 0 .316-.067.573.573 0 0 0 .206-.173.69.69 0 0 0 .109-.236 1 1 0 0 0 0-.513.7.7 0 0 0-.109-.236.585.585 0 0 0-.2-.172.673.673 0 0 0-.32-.067h-.261V.025a.773.773 0 0 0-.248-.618.856.856 0 0 0-.577-.215.862.862 0 0 0-.582.208.777.777 0 0 0-.244.623zm-3.682-2.327a.56.56 0 0 1-.215-.475v-.582a.561.561 0 0 1 .215-.475.77.77 0 0 1 .951 0 .562.562 0 0 1 .214.475v.581a.561.561 0 0 1-.214.475.77.77 0 0 1-.951 0m10.635 3.793a.524.524 0 0 0 .126.4.787.787 0 0 0 .362.227 1.013 1.013 0 0 0 .227.042c.079.005.149.008.21.008a1.874 1.874 0 0 0 .669-.122 1.692 1.692 0 0 0 .577-.361 1.809 1.809 0 0 0 .408-.6 2.084 2.084 0 0 0 .156-.838V5h1.347v2.138h1.71V5h.69a.647.647 0 0 0 .543-.21.747.747 0 0 0 .164-.471.831.831 0 0 0-.038-.248.644.644 0 0 0-.122-.223.582.582 0 0 0-.219-.16.819.819 0 0 0-.328-.059h-6.465a.819.819 0 0 0-.328.059.582.582 0 0 0-.219.16.645.645 0 0 0-.122.223.83.83 0 0 0-.038.248.747.747 0 0 0 .164.471.648.648 0 0 0 .543.21H31.7v.337a.8.8 0 0 1-.152.53.579.579 0 0 1-.4.2.529.529 0 0 0-.547.539m1.717-4.966a.3.3 0 0 1-.194-.046.261.261 0 0 1-.051-.19V.194a.74.74 0 0 0-.253-.614.927.927 0 0 0-.6-.2 1.179 1.179 0 0 0-.328.046.742.742 0 0 0-.278.148.74.74 0 0 0-.19.257.871.871 0 0 0-.071.366v1.554a2.7 2.7 0 0 0 .059.61.866.866 0 0 0 .206.4.866.866 0 0 0 .4.227 2.32 2.32 0 0 0 .627.071h5.084a.634.634 0 0 0 .3-.067.7.7 0 0 0 .21-.168.635.635 0 0 0 .122-.232.915.915 0 0 0 .038-.256.831.831 0 0 0-.038-.248.677.677 0 0 0-.118-.223.587.587 0 0 0-.21-.164.7.7 0 0 0-.307-.063zM43.554-.429a.9.9 0 0 0-.589-.261.949.949 0 0 0-.627.164.8.8 0 0 0-.324.593 3.136 3.136 0 0 1-.278.968 3.059 3.059 0 0 1-.522.77 2.9 2.9 0 0 1-.7.551 2.98 2.98 0 0 1-.8.311.723.723 0 0 0-.606.825.67.67 0 0 0 .261.484.829.829 0 0 0 .539.164 2.963 2.963 0 0 0 .83-.14 3.99 3.99 0 0 0 .825-.37 4.616 4.616 0 0 0 .762-.564 4.663 4.663 0 0 0 .648-.724 2.012 2.012 0 0 1 .715.109 1.822 1.822 0 0 1 .6.35 1.923 1.923 0 0 1 .442.572 2.351 2.351 0 0 1 .236.77h1.709a3.865 3.865 0 0 0-.341-1.4 3.153 3.153 0 0 0-.7-.976 2.847 2.847 0 0 0-.943-.581 3.312 3.312 0 0 0-1.052-.21A3.165 3.165 0 0 0 43.756.2a.819.819 0 0 0-.2-.631M39.69 5.505a.792.792 0 0 0-.333.063.658.658 0 0 0-.227.164.6.6 0 0 0-.13.232.92.92 0 0 0-.038.257.816.816 0 0 0 .042.261.66.66 0 0 0 .13.227.623.623 0 0 0 .223.16.819.819 0 0 0 .328.059h6.431a.819.819 0 0 0 .328-.059.621.621 0 0 0 .223-.16.661.661 0 0 0 .131-.227.816.816 0 0 0 .042-.261.921.921 0 0 0-.038-.257.6.6 0 0 0-.126-.231.658.658 0 0 0-.227-.164.789.789 0 0 0-.332-.063zM53.15.11a.73.73 0 0 0-.076-.345.7.7 0 0 0-.2-.236.858.858 0 0 0-.274-.139 1.05 1.05 0 0 0-.311-.047 1.232 1.232 0 0 0-.324.042.855.855 0 0 0-.278.131.624.624 0 0 0-.194.231.768.768 0 0 0-.071.345v2.795a3.48 3.48 0 0 0 .046.619.816.816 0 0 0 .181.4.735.735 0 0 0 .374.215 2.524 2.524 0 0 0 .619.063h5.8V.093a.729.729 0 0 0-.076-.345.675.675 0 0 0-.194-.231.8.8 0 0 0-.272-.131 1.2 1.2 0 0 0-.315-.042 1.232 1.232 0 0 0-.324.042.8.8 0 0 0-.273.131.639.639 0 0 0-.19.231.768.768 0 0 0-.071.345v.4H53.15zm-1.423 5.4a.792.792 0 0 0-.333.063.658.658 0 0 0-.227.164.6.6 0 0 0-.126.231.92.92 0 0 0-.041.253.816.816 0 0 0 .042.261.66.66 0 0 0 .13.227.623.623 0 0 0 .223.16.819.819 0 0 0 .328.059h6.431a.819.819 0 0 0 .328-.059.621.621 0 0 0 .223-.16.661.661 0 0 0 .131-.227.816.816 0 0 0 .042-.261.921.921 0 0 0-.038-.257.6.6 0 0 0-.126-.231.658.658 0 0 0-.227-.164.789.789 0 0 0-.332-.063zm1.684-2.69a.267.267 0 0 1-.206-.063.285.285 0 0 1-.054-.19V1.8h3.577v1.02zm8.56 1.28a.377.377 0 0 1 .084-.29.476.476 0 0 1 .3-.072h2.576V.791a2.311 2.311 0 0 0-.067-.606.805.805 0 0 0-.236-.4 1.014 1.014 0 0 0-.451-.219 3.167 3.167 0 0 0-.716-.066h-2.382a.769.769 0 0 0-.328.063.671.671 0 0 0-.223.164.606.606 0 0 0-.126.227.874.874 0 0 0-.038.253.79.79 0 0 0 .042.253.7.7 0 0 0 .126.227.582.582 0 0 0 .219.16.819.819 0 0 0 .328.059h1.936c.1 0 .157.025.185.076a.323.323 0 0 1 .042.16v1.223h-1.507a2.743 2.743 0 0 0-.673.071.984.984 0 0 0-.451.24 1 1 0 0 0-.253.438 2.381 2.381 0 0 0-.08.665v1.533a2.43 2.43 0 0 0 .08.669 1 1 0 0 0 .253.442 1.013 1.013 0 0 0 .451.244 2.589 2.589 0 0 0 .673.076h3.106a.653.653 0 0 0 .547-.214.753.753 0 0 0 .168-.476.831.831 0 0 0-.038-.248.61.61 0 0 0-.126-.223.622.622 0 0 0-.223-.16.819.819 0 0 0-.328-.059h-2.483a.476.476 0 0 1-.3-.072.377.377 0 0 1-.087-.291zm5.732 3V.025a.765.765 0 0 0-.252-.625.93.93 0 0 0-1.178 0 .764.764 0 0 0-.253.623V7.1zm7.407.025A2.195 2.195 0 0 0 75.864 7a1.48 1.48 0 0 0 .539-.328 1.355 1.355 0 0 0 .324-.505 1.925 1.925 0 0 0 0-1.279 1.4 1.4 0 0 0-.324-.509 1.488 1.488 0 0 0-.539-.336 2.122 2.122 0 0 0-.753-.122H71.34a2.1 2.1 0 0 0-.762.126 1.542 1.542 0 0 0-.539.341 1.356 1.356 0 0 0-.32.509 1.964 1.964 0 0 0 0 1.267 1.322 1.322 0 0 0 .32.5 1.534 1.534 0 0 0 .539.336 2.166 2.166 0 0 0 .762.122zm-1-3.586a.568.568 0 0 0 .459-.194.639.639 0 0 0 .164-.421.62.62 0 0 0-.152-.408.581.581 0 0 0-.471-.181h-.286v-.64a.606.606 0 0 0-.223-.535 1.147 1.147 0 0 0-1.153 0 .607.607 0 0 0-.223.535v.64h-.69v-.64a.606.606 0 0 0-.223-.535 1.147 1.147 0 0 0-1.153 0 .607.607 0 0 0-.223.535v.64h-.152a.581.581 0 0 0-.471.181.62.62 0 0 0-.152.408.638.638 0 0 0 .164.421.569.569 0 0 0 .459.194zm.943.093h1.7V.025a.841.841 0 0 0-.072-.357.772.772 0 0 0-.189-.261.8.8 0 0 0-.274-.16.94.94 0 0 0-.318-.055.911.911 0 0 0-.594.21.759.759 0 0 0-.256.623zM73.823.741a.608.608 0 0 0 .265-.054.589.589 0 0 0 .194-.148.658.658 0 0 0 .118-.211.693.693 0 0 0 .042-.236.767.767 0 0 0-.038-.236.636.636 0 0 0-.113-.21A.577.577 0 0 0 74.1-.5a.617.617 0 0 0-.278-.059h-3.93a.617.617 0 0 0-.278.059.576.576 0 0 0-.194.152.637.637 0 0 0-.114.21.767.767 0 0 0-.038.236.692.692 0 0 0 .042.236.665.665 0 0 0 .122.21.594.594 0 0 0 .194.148.611.611 0 0 0 .265.054zm-2.037 5.21a.416.416 0 0 1-.37-.139.5.5 0 0 1-.093-.282.463.463 0 0 1 .093-.273.43.43 0 0 1 .37-.131h2.879a.43.43 0 0 1 .37.131.463.463 0 0 1 .093.273.5.5 0 0 1-.093.282.416.416 0 0 1-.37.139z" transform="translate(9.265 .85)"/>
                </g>
            </g>
        </g>
    </g>
</svg>
