<svg xmlns="http://www.w3.org/2000/svg" width="28" height="20" viewBox="0 0 28 20">
    <g>
        <g>
            <path fill="#2b94e8" stroke="#2b94e8" stroke-width="0.2px" d="M746.176 368.849a2.976 2.976 0 0 0-.116-2.677 5.082 5.082 0 0 1-.931-1.9 11.244 11.244 0 0 1-.232-2.832c.065-1.463-.767-1.751-1.145-2.154a8.586 8.586 0 0 1-.679-1.339c-.8-1.629-2.946-1.363-3.453-1.271a2.347 2.347 0 0 1-2.037-.495 2.476 2.476 0 0 0-2.27-.349 4.2 4.2 0 0 0-1.571.756c-.394.37-.521.324-1.106.243a3.384 3.384 0 0 0-3.143 1.213.7.7 0 0 1-.776.291 2.055 2.055 0 0 0-1.436.194 3.5 3.5 0 0 0-1.4 2.405c-.067.371-.366 1.048-.486 1.425a6.05 6.05 0 0 0 .1 3.929 11.645 11.645 0 0 1-1.6 4.041 4.38 4.38 0 0 1-2.383 2.137c1.911 2.1 6.975 2.862 11.32 1.62.894-.255 2.379-.619 2.775-.679a3.01 3.01 0 0 0 2.415 1.3 2.711 2.711 0 0 0 2.532-1.275c.582.175.962.369 1.6.582 3.071 1.024 6.111.669 7.158-.931a2.133 2.133 0 0 1-1.28-.873 14.458 14.458 0 0 1-1.856-3.361zm-6.79 1.668a1.323 1.323 0 0 1 1.077-.359 2.887 2.887 0 0 0 .582 1.416c-.931.276-.828.5-1.251.669a.916.916 0 0 1-.625-.868 1.124 1.124 0 0 1 .217-.858zm-12.276-8.255a9.509 9.509 0 0 0 .326-1.2 1.468 1.468 0 0 1 .506-.994 1.13 1.13 0 0 1 .87-.085 1.351 1.351 0 0 0 .135.023 1.552 1.552 0 0 0 1.285-.493c.04-.04.09-.1.151-.178a2.424 2.424 0 0 1 2.626-.955 1.992 1.992 0 0 0 1.83-.683c.035-.035.063-.065.085-.082a1.674 1.674 0 0 1 2.146.024 2.436 2.436 0 0 0 2.415.509 2.618 2.618 0 0 1 .346-.06l.11-.006c.571-.034 1.433-.085 2.087 1.362a3.878 3.878 0 0 0 .79 1.2c.28.3.434.463.485 2.29.068 2.452.536 2.981.989 3.492a2.71 2.71 0 0 1 .355.466 1.72 1.72 0 0 1-.376 1.944 6.331 6.331 0 0 0-.621.893c-.374.6-.752 1.412-1.2 1.592a1.87 1.87 0 0 1-.9.072 2.922 2.922 0 0 1-.6-1.775 2.376 2.376 0 0 0-1.927.48 1.764 1.764 0 0 0-.437 1.331 2.064 2.064 0 0 0 .625 1.217.894.894 0 0 1-.679.64 1.827 1.827 0 0 1-1.959-1.271 2.652 2.652 0 0 1 1.474-3.346 8.429 8.429 0 0 0 1.694.306 2.176 2.176 0 0 0 2.086-1.234.94.94 0 0 1 .83.025.378.378 0 0 0 .323-.684 1.8 1.8 0 0 0-.788-.182l.057-.157c.442-1.214-.265-4.7-.347-5.09a.378.378 0 1 0-.741.155c.211 1.01.689 3.818.377 4.677-.428 1.179-.745 1.734-1.8 1.734a3.2 3.2 0 0 1-1.7-.416 15.1 15.1 0 0 0-.146-6.873.379.379 0 0 0-.732.195 14.4 14.4 0 0 1 .108 6.618 2.288 2.288 0 0 1-1.59.788 3.414 3.414 0 0 1-1.975-.768l-.037-.045c.075-1.026-.057-4.55-.1-5.693a.378.378 0 0 0-.756.031c.1 2.517.169 5.373.1 5.707a1.131 1.131 0 0 1-.669.539 1.738 1.738 0 0 1-1.679-.367c-1.12-.839-1.072-4.2-.959-5.427a.378.378 0 1 0-.754-.07c-.039.424-.3 3.707.673 5.41a1.488 1.488 0 0 1-.969.509c-.072-.006-.29-.025-.527-.406-1.812-2.89-1.356-4.313-.916-5.689z" transform="translate(-721.327 -355.615)"/>
        </g>
    </g>
</svg>
