<svg xmlns="http://www.w3.org/2000/svg" width="25" height="20" viewBox="0 0 25 20">
    <g>
        <g>
            <path fill="#2b94e8" d="M765.016 127.262h-10.168a3.033 3.033 0 0 0-2.37 1.136l-4.392 5.5a2.976 2.976 0 0 0-.279 3.305l4.717 8.5a3.029 3.029 0 0 0 2.65 1.553h9.518a3.028 3.028 0 0 0 2.649-1.553l4.717-8.5a2.978 2.978 0 0 0-.278-3.305l-4.393-5.5a3.033 3.033 0 0 0-2.371-1.136z" transform="translate(-17 -70.166) translate(0 -.947) translate(-730.432 -56.149)"/>
        </g>
        <path fill="#eef8ff" d="M753.341 138.845l.705 1.784a.729.729 0 0 0 .712.448h7.477a.776.776 0 0 0 .76-.405l1.859-4.672a.622.622 0 0 0-.062-.592.578.578 0 0 0-.514-.253H753.9l.6-1.45h10.3l-.639-1.558a1.081 1.081 0 0 0-1-.67h-9.43a1.081 1.081 0 0 0-1 .668l-.879 2.127a1.088 1.088 0 0 0-.006.818l.914 2.3h9.131l-.571 1.454z" transform="translate(-17 -70.166) translate(-729.148 -56.16)"/>
    </g>
</svg>
