<svg xmlns="http://www.w3.org/2000/svg" width="51" height="44" viewBox="0 0 51 44">
    <defs>
        <style>
            .cls-1{fill:#70b9f9}.cls-2{fill:#fff}
        </style>
    </defs>
    <g id="그룹_938" transform="translate(-248 -637)">
        <g id="그룹_914" transform="translate(1 143.174)">
            <g id="그룹_882" transform="translate(231 78)">
                <path id="패스_1027" d="M426.359 372.189H412.53a4.2 4.2 0 0 0-3.223 1.478l-5.974 7.151a3.731 3.731 0 0 0-.379 4.3l6.415 11.055a4.153 4.153 0 0 0 3.6 2.019h12.944a4.152 4.152 0 0 0 3.6-2.019l6.416-11.055a3.732 3.732 0 0 0-.379-4.3l-5.973-7.151a4.2 4.2 0 0 0-3.218-1.478z" class="cls-1" transform="translate(-377.445 43.637)"/>
            </g>
            <g id="그룹_784" transform="translate(258.025 8.92)">
                <g id="그룹_768" transform="rotate(176 2.827 252.803)">
                    <path id="사각형_131" d="M0 0h5.669v10.352A2.244 2.244 0 0 1 3.425 12.6H2.244A2.244 2.244 0 0 1 0 10.352V0z" class="cls-2" transform="rotate(40.38 .704 12.332)"/>
                    <path id="패스_909" d="M4.318 5.075L0 1.4 4.913 0z" class="cls-2" transform="translate(9.077)"/>
                </g>
                <path id="사각형_251" d="M0 0H9.568V1.196H0z" class="cls-1" transform="rotate(37 -725.405 267.323)"/>
                <path id="사각형_252" d="M0 0H9.891V1.236H0z" class="cls-1" transform="rotate(127 -113.69 251.727)"/>
            </g>
        </g>
        <path id="사각형_1507" fill="none" d="M0 0H51V44H0z" transform="translate(248 637)"/>
    </g>
</svg>
