<svg xmlns="http://www.w3.org/2000/svg" width="51" height="44" viewBox="0 0 51 44">
    <g>
        <g>
            <g>
                <path fill="#a3ace9" d="M426.359 372.189H412.53a4.2 4.2 0 0 0-3.223 1.478l-5.974 7.151a3.731 3.731 0 0 0-.379 4.3l6.415 11.055a4.153 4.153 0 0 0 3.6 2.019h12.944a4.152 4.152 0 0 0 3.6-2.019l6.416-11.055a3.732 3.732 0 0 0-.379-4.3l-5.973-7.151a4.2 4.2 0 0 0-3.218-1.478z" transform="translate(-22 -702) translate(1 163.174) translate(5 110) translate(-377.445 56.637)"/>
                <g>
                    <path fill="#fff" d="M2185.831 3631.159v1.963h-1.889v-1.814a7.963 7.963 0 0 1-3.244-.82l.573-2.23a6.742 6.742 0 0 0 3.168.838c1.105 0 1.852-.439 1.852-1.18 0-.724-.614-1.185-2.044-1.661-2.04-.689-3.433-1.641-3.433-3.49 0-1.7 1.183-3.017 3.225-3.394v-1.815h1.866v1.68a6.917 6.917 0 0 1 2.787.63l-.574 2.156a5.931 5.931 0 0 0-2.747-.669c-1.239 0-1.641.553-1.641 1.088 0 .608.669 1.031 2.311 1.621 2.268.8 3.167 1.85 3.167 3.586.001 1.695-1.185 3.147-3.377 3.511z" transform="translate(-22 -702) translate(1 163.174) translate(5 110) translate(-15 -3) translate(-2127.699 -3179.722)"/>
                </g>
            </g>
        </g>
        <path fill="none" d="M0 0H51V44H0z" transform="translate(-22 -702) translate(22 702)"/>
    </g>
</svg>
