<svg xmlns="http://www.w3.org/2000/svg" width="22" height="18" viewBox="0 0 22 18">
    <g>
        <path fill="#2b94e8" d="M417.919 372.189h-8.948a2.647 2.647 0 0 0-2.086 1.023l-3.866 4.951a2.728 2.728 0 0 0-.245 2.975l4.151 7.654a2.655 2.655 0 0 0 2.331 1.4h8.376a2.655 2.655 0 0 0 2.331-1.4l4.152-7.654a2.729 2.729 0 0 0-.246-2.975L420 373.212a2.648 2.648 0 0 0-2.081-1.023z" transform="translate(-43 -426.238) translate(-359.445 54.049)"/>
        <path fill="#fff" d="M2184.32 3628.1v1.522h-1.333v-1.407a5.219 5.219 0 0 1-2.289-.636l.4-1.73a4.428 4.428 0 0 0 2.236.65c.78 0 1.306-.341 1.306-.916s-.433-.918-1.442-1.288c-1.439-.535-2.422-1.272-2.422-2.707a2.619 2.619 0 0 1 2.276-2.632v-1.408h1.317v1.3a4.535 4.535 0 0 1 1.967.488l-.405 1.672a3.89 3.89 0 0 0-1.938-.519c-.875 0-1.158.429-1.158.844 0 .471.473.8 1.631 1.256 1.6.623 2.234 1.435 2.234 2.781a2.709 2.709 0 0 1-2.38 2.73z" transform="translate(-43 -426.238) translate(-2129.893 -3188.78)"/>
    </g>
</svg>
