<svg xmlns="http://www.w3.org/2000/svg" width="21.999" height="18" viewBox="0 0 21.999 18">
    <g>
        <g>
            <path fill="#2b94e8" d="M417.918 372.189h-8.948a2.647 2.647 0 0 0-2.086 1.023l-3.865 4.951a2.728 2.728 0 0 0-.245 2.975l4.151 7.653a2.655 2.655 0 0 0 2.331 1.4h8.375a2.655 2.655 0 0 0 2.331-1.4l4.151-7.653a2.729 2.729 0 0 0-.245-2.975L420 373.212a2.648 2.648 0 0 0-2.082-1.023z" transform="translate(-443 84.2) translate(443 -84.2) translate(-402.445 -372.189)"/>
        </g>
        <path fill="#fff" d="M55.161 504.135a6.254 6.254 0 0 0-1.11-3.135 6.392 6.392 0 0 0-3.735-2.538 6.294 6.294 0 0 0-1.426-.173l-.023-.017-.024.017a6.309 6.309 0 0 0-6.271 5.849c-.011.151-.023.3-.023.454s.012.3.023.453a6.255 6.255 0 0 0 1.109 3.139 6.359 6.359 0 0 0 5.162 2.712l.023.017.023-.017a6.353 6.353 0 0 0 4.584-2 6.389 6.389 0 0 0 .577-.707 6.255 6.255 0 0 0 1.109-3.139c.011-.15.023-.3.023-.453s-.011-.312-.021-.462zm-.909 0h-2.121a7.688 7.688 0 0 0-.391-2.022 9.286 9.286 0 0 0 1.528-.648 5.351 5.351 0 0 1 .984 2.67zm-1.585-3.381a8.413 8.413 0 0 1-1.271.518 7.764 7.764 0 0 0-1.317-1.939 5.4 5.4 0 0 1 2.588 1.421zm-6.157 3.381a6.768 6.768 0 0 1 .362-1.785 9.34 9.34 0 0 0 3.989 0 6.781 6.781 0 0 1 .362 1.785zm4.712.907a6.784 6.784 0 0 1-.362 1.786 9.334 9.334 0 0 0-3.989 0 6.768 6.768 0 0 1-.362-1.786zm-2.356-5.624A6.873 6.873 0 0 1 50.5 501.5a8.445 8.445 0 0 1-3.265 0 6.874 6.874 0 0 1 1.631-2.082zm-1.213-.085a7.774 7.774 0 0 0-1.318 1.939 8.408 8.408 0 0 1-1.27-.518 5.4 5.4 0 0 1 2.589-1.421zm-3.19 2.132a9.3 9.3 0 0 0 1.528.648 7.687 7.687 0 0 0-.39 2.022h-2.12a5.352 5.352 0 0 1 .983-2.67zm-.983 3.577h2.12a7.686 7.686 0 0 0 .39 2.023 9.3 9.3 0 0 0-1.528.648 5.355 5.355 0 0 1-.981-2.671zm1.584 3.382a8.4 8.4 0 0 1 1.271-.518 7.768 7.768 0 0 0 1.318 1.939 5.41 5.41 0 0 1-2.588-1.422zm3.8 1.336a6.878 6.878 0 0 1-1.632-2.081 8.452 8.452 0 0 1 3.265 0 6.877 6.877 0 0 1-1.631 2.081zm1.213.085a7.777 7.777 0 0 0 1.318-1.939 8.43 8.43 0 0 1 1.27.518 5.41 5.41 0 0 1-2.586 1.421zm3.19-2.132a9.293 9.293 0 0 0-1.529-.648 7.672 7.672 0 0 0 .391-2.023h2.121a5.355 5.355 0 0 1-.981 2.67z" transform="translate(-443 84.2) translate(405.133 -579.989)"/>
    </g>
</svg>
