<svg xmlns="http://www.w3.org/2000/svg" width="21.889" height="21.8" viewBox="0 0 21.889 21.8">
    <path fill="none" stroke="#000" stroke-linejoin="round" stroke-miterlimit="10" stroke-width="1.8px" d="M415.179 142a.825.825 0 0 1-.857-.779l-.185-2.484a7.784 7.784 0 0 1-1.54-.794.726.726 0 0 1-.247.235l-2.3 1.11a.712.712 0 0 1-.36.1.872.872 0 0 1-.742-.447l-1.819-3.149a.822.822 0 0 1 .246-1.134l2.077-1.417a6.958 6.958 0 0 1 0-2.467l-2.079-1.417a.824.824 0 0 1-.246-1.132l1.817-3.149a.823.823 0 0 1 1.105-.354l2.309 1.111a.715.715 0 0 1 .243.231 7.791 7.791 0 0 1 1.538-.793l.185-2.486a.825.825 0 0 1 .857-.78h3.637a.821.821 0 0 1 .859.78l.187 2.485a7.791 7.791 0 0 1 1.54.793.716.716 0 0 1 .243-.231l2.309-1.111a.82.82 0 0 1 1.1.354l1.819 3.149a.824.824 0 0 1-.247 1.132l-2.076 1.415a6.952 6.952 0 0 1 0 2.47l2.076 1.415a.822.822 0 0 1 .246 1.134l-1.818 3.149a.873.873 0 0 1-.743.447.72.72 0 0 1-.361-.1l-2.3-1.11a.725.725 0 0 1-.247-.234 7.791 7.791 0 0 1-1.541.794l-.187 2.484a.821.821 0 0 1-.859.779zm-1.839-10a3.664 3.664 0 1 0 3.661-3.47 3.564 3.564 0 0 0-3.661 3.47z" transform="translate(-406.097 -121.1)"/>
</svg>
